<mxfile host="app.diagrams.net" modified="2022-07-16T15:27:17.041Z" agent="5.0 (Macintosh; Intel Mac OS X 10_15_7) AppleWebKit/537.36 (KHTML, like Gecko) Chrome/103.0.0.0 Safari/537.36" etag="V_sd8nxFUXdp_IryucKc" version="20.0.3" type="github">
  <diagram id="FNAxTN_3iXklGNbiLeHc" name="Page-1">
    <mxGraphModel dx="1379" dy="712" grid="1" gridSize="10" guides="1" tooltips="1" connect="1" arrows="1" fold="1" page="1" pageScale="1" pageWidth="850" pageHeight="1100" math="0" shadow="0">
      <root>
        <mxCell id="0" />
        <mxCell id="1" parent="0" />
        <mxCell id="85didcNxIVd2ZYdAyxNC-13" value="" style="edgeStyle=orthogonalEdgeStyle;rounded=0;orthogonalLoop=1;jettySize=auto;html=1;" parent="1" source="85didcNxIVd2ZYdAyxNC-1" target="85didcNxIVd2ZYdAyxNC-12" edge="1">
          <mxGeometry relative="1" as="geometry" />
        </mxCell>
        <mxCell id="85didcNxIVd2ZYdAyxNC-1" value="&lt;b&gt;Past Price &amp;amp; volume data&lt;br&gt;&lt;/b&gt;&lt;br&gt;Freq: Daily&lt;br&gt;&lt;br&gt;Source: Yahoofinance/FMP" style="rounded=0;whiteSpace=wrap;html=1;" parent="1" vertex="1">
          <mxGeometry x="70" y="440" width="120" height="110" as="geometry" />
        </mxCell>
        <mxCell id="85didcNxIVd2ZYdAyxNC-24" value="" style="edgeStyle=orthogonalEdgeStyle;rounded=0;orthogonalLoop=1;jettySize=auto;html=1;" parent="1" source="85didcNxIVd2ZYdAyxNC-2" target="85didcNxIVd2ZYdAyxNC-23" edge="1">
          <mxGeometry relative="1" as="geometry" />
        </mxCell>
        <mxCell id="85didcNxIVd2ZYdAyxNC-2" value="&lt;b&gt;Historical fundamental Data&lt;/b&gt;&lt;br&gt;&lt;br&gt;Freq: Yearly" style="rounded=0;whiteSpace=wrap;html=1;" parent="1" vertex="1">
          <mxGeometry x="70" y="190" width="120" height="90" as="geometry" />
        </mxCell>
        <mxCell id="85didcNxIVd2ZYdAyxNC-5" value="" style="edgeStyle=orthogonalEdgeStyle;rounded=0;orthogonalLoop=1;jettySize=auto;html=1;" parent="1" source="85didcNxIVd2ZYdAyxNC-3" edge="1">
          <mxGeometry relative="1" as="geometry">
            <mxPoint x="270" y="370" as="targetPoint" />
          </mxGeometry>
        </mxCell>
        <mxCell id="85didcNxIVd2ZYdAyxNC-3" value="&lt;b&gt;News text data&lt;/b&gt;&lt;br&gt;&lt;br&gt;Freq: Daily, forwardfilled" style="rounded=0;whiteSpace=wrap;html=1;" parent="1" vertex="1">
          <mxGeometry x="70" y="334" width="120" height="60" as="geometry" />
        </mxCell>
        <mxCell id="85didcNxIVd2ZYdAyxNC-9" value="" style="edgeStyle=orthogonalEdgeStyle;rounded=0;orthogonalLoop=1;jettySize=auto;html=1;" parent="1" source="85didcNxIVd2ZYdAyxNC-6" target="85didcNxIVd2ZYdAyxNC-8" edge="1">
          <mxGeometry relative="1" as="geometry" />
        </mxCell>
        <mxCell id="85didcNxIVd2ZYdAyxNC-6" value="html2text" style="ellipse;whiteSpace=wrap;html=1;rounded=0;" parent="1" vertex="1">
          <mxGeometry x="223" y="340" width="67" height="50" as="geometry" />
        </mxCell>
        <mxCell id="85didcNxIVd2ZYdAyxNC-15" value="" style="edgeStyle=orthogonalEdgeStyle;rounded=0;orthogonalLoop=1;jettySize=auto;html=1;entryX=0.5;entryY=1;entryDx=0;entryDy=0;" parent="1" source="85didcNxIVd2ZYdAyxNC-12" target="85didcNxIVd2ZYdAyxNC-17" edge="1">
          <mxGeometry relative="1" as="geometry" />
        </mxCell>
        <mxCell id="85didcNxIVd2ZYdAyxNC-12" value="normalization" style="ellipse;whiteSpace=wrap;html=1;rounded=0;" parent="1" vertex="1">
          <mxGeometry x="240" y="465" width="90" height="60" as="geometry" />
        </mxCell>
        <mxCell id="85didcNxIVd2ZYdAyxNC-30" value="" style="edgeStyle=orthogonalEdgeStyle;rounded=0;orthogonalLoop=1;jettySize=auto;html=1;" parent="1" source="85didcNxIVd2ZYdAyxNC-21" target="85didcNxIVd2ZYdAyxNC-29" edge="1">
          <mxGeometry relative="1" as="geometry" />
        </mxCell>
        <mxCell id="85didcNxIVd2ZYdAyxNC-34" value="" style="edgeStyle=orthogonalEdgeStyle;rounded=0;orthogonalLoop=1;jettySize=auto;html=1;" parent="1" source="85didcNxIVd2ZYdAyxNC-25" target="85didcNxIVd2ZYdAyxNC-33" edge="1">
          <mxGeometry relative="1" as="geometry" />
        </mxCell>
        <mxCell id="85didcNxIVd2ZYdAyxNC-32" value="" style="edgeStyle=orthogonalEdgeStyle;rounded=0;orthogonalLoop=1;jettySize=auto;html=1;" parent="1" source="85didcNxIVd2ZYdAyxNC-29" target="85didcNxIVd2ZYdAyxNC-31" edge="1">
          <mxGeometry relative="1" as="geometry" />
        </mxCell>
        <mxCell id="85didcNxIVd2ZYdAyxNC-29" value="LSTM" style="ellipse;whiteSpace=wrap;html=1;rounded=0;" parent="1" vertex="1">
          <mxGeometry x="861" y="335" width="120" height="60" as="geometry" />
        </mxCell>
        <mxCell id="85didcNxIVd2ZYdAyxNC-38" value="" style="edgeStyle=orthogonalEdgeStyle;rounded=0;orthogonalLoop=1;jettySize=auto;html=1;entryX=0;entryY=0.5;entryDx=0;entryDy=0;" parent="1" source="85didcNxIVd2ZYdAyxNC-31" target="85didcNxIVd2ZYdAyxNC-35" edge="1">
          <mxGeometry relative="1" as="geometry">
            <mxPoint x="1310" y="290" as="targetPoint" />
            <Array as="points">
              <mxPoint x="1220" y="365" />
              <mxPoint x="1220" y="290" />
            </Array>
          </mxGeometry>
        </mxCell>
        <mxCell id="85didcNxIVd2ZYdAyxNC-31" value="Conv1d" style="ellipse;whiteSpace=wrap;html=1;rounded=0;" parent="1" vertex="1">
          <mxGeometry x="1061" y="335" width="120" height="60" as="geometry" />
        </mxCell>
        <mxCell id="85didcNxIVd2ZYdAyxNC-36" value="" style="edgeStyle=orthogonalEdgeStyle;rounded=0;orthogonalLoop=1;jettySize=auto;html=1;" parent="1" source="85didcNxIVd2ZYdAyxNC-33" target="85didcNxIVd2ZYdAyxNC-35" edge="1">
          <mxGeometry relative="1" as="geometry" />
        </mxCell>
        <mxCell id="85didcNxIVd2ZYdAyxNC-33" value="Conv1d" style="ellipse;whiteSpace=wrap;html=1;rounded=0;" parent="1" vertex="1">
          <mxGeometry x="1050" y="205" width="120" height="60" as="geometry" />
        </mxCell>
        <mxCell id="85didcNxIVd2ZYdAyxNC-41" value="" style="edgeStyle=orthogonalEdgeStyle;rounded=0;orthogonalLoop=1;jettySize=auto;html=1;" parent="1" source="85didcNxIVd2ZYdAyxNC-35" target="85didcNxIVd2ZYdAyxNC-40" edge="1">
          <mxGeometry relative="1" as="geometry" />
        </mxCell>
        <mxCell id="85didcNxIVd2ZYdAyxNC-35" value="concat" style="ellipse;whiteSpace=wrap;html=1;rounded=0;" parent="1" vertex="1">
          <mxGeometry x="1270" y="260" width="120" height="60" as="geometry" />
        </mxCell>
        <mxCell id="85didcNxIVd2ZYdAyxNC-39" value="Preprocessing" style="swimlane;fillColor=#dae8fc;strokeColor=#6c8ebf;" parent="1" vertex="1">
          <mxGeometry x="30" y="100" width="668" height="560" as="geometry" />
        </mxCell>
        <mxCell id="85didcNxIVd2ZYdAyxNC-8" value="BERT Tokenizer" style="ellipse;whiteSpace=wrap;html=1;rounded=0;" parent="85didcNxIVd2ZYdAyxNC-39" vertex="1">
          <mxGeometry x="290" y="235" width="80" height="60" as="geometry" />
        </mxCell>
        <mxCell id="SlRXcpWh59kvIgN_GhmR-5" value="" style="edgeStyle=orthogonalEdgeStyle;rounded=0;orthogonalLoop=1;jettySize=auto;html=1;entryX=0;entryY=0.5;entryDx=0;entryDy=0;" edge="1" parent="85didcNxIVd2ZYdAyxNC-39" source="SlRXcpWh59kvIgN_GhmR-2" target="85didcNxIVd2ZYdAyxNC-17">
          <mxGeometry relative="1" as="geometry">
            <mxPoint x="580" y="290" as="targetPoint" />
          </mxGeometry>
        </mxCell>
        <mxCell id="SlRXcpWh59kvIgN_GhmR-2" value="FinBERT" style="ellipse;whiteSpace=wrap;html=1;rounded=0;" vertex="1" parent="85didcNxIVd2ZYdAyxNC-39">
          <mxGeometry x="410" y="237.5" width="70" height="55" as="geometry" />
        </mxCell>
        <mxCell id="SlRXcpWh59kvIgN_GhmR-3" value="" style="edgeStyle=orthogonalEdgeStyle;rounded=0;orthogonalLoop=1;jettySize=auto;html=1;" edge="1" parent="85didcNxIVd2ZYdAyxNC-39" source="85didcNxIVd2ZYdAyxNC-8" target="SlRXcpWh59kvIgN_GhmR-2">
          <mxGeometry relative="1" as="geometry" />
        </mxCell>
        <mxCell id="85didcNxIVd2ZYdAyxNC-17" value="concat" style="ellipse;whiteSpace=wrap;html=1;rounded=0;" parent="85didcNxIVd2ZYdAyxNC-39" vertex="1">
          <mxGeometry x="480" y="295" width="120" height="60" as="geometry" />
        </mxCell>
        <mxCell id="SlRXcpWh59kvIgN_GhmR-6" value="autoencoder" style="ellipse;whiteSpace=wrap;html=1;rounded=0;" vertex="1" parent="85didcNxIVd2ZYdAyxNC-39">
          <mxGeometry x="420" y="105" width="90" height="60" as="geometry" />
        </mxCell>
        <mxCell id="85didcNxIVd2ZYdAyxNC-25" value="latent representation" style="whiteSpace=wrap;html=1;rounded=0;" parent="85didcNxIVd2ZYdAyxNC-39" vertex="1">
          <mxGeometry x="552" y="105" width="92" height="60" as="geometry" />
        </mxCell>
        <mxCell id="85didcNxIVd2ZYdAyxNC-23" value="0-padding" style="ellipse;whiteSpace=wrap;html=1;rounded=0;" parent="85didcNxIVd2ZYdAyxNC-39" vertex="1">
          <mxGeometry x="200" y="105" width="80" height="60" as="geometry" />
        </mxCell>
        <mxCell id="SlRXcpWh59kvIgN_GhmR-7" value="" style="edgeStyle=orthogonalEdgeStyle;rounded=0;orthogonalLoop=1;jettySize=auto;html=1;" edge="1" parent="85didcNxIVd2ZYdAyxNC-39" source="85didcNxIVd2ZYdAyxNC-23" target="SlRXcpWh59kvIgN_GhmR-6">
          <mxGeometry relative="1" as="geometry" />
        </mxCell>
        <mxCell id="SlRXcpWh59kvIgN_GhmR-9" value="Dimensions:&lt;br&gt;(N, 50, 80)&amp;nbsp;&lt;br&gt;float64" style="whiteSpace=wrap;html=1;rounded=0;" vertex="1" parent="85didcNxIVd2ZYdAyxNC-39">
          <mxGeometry x="320" y="105" width="70" height="60" as="geometry" />
        </mxCell>
        <mxCell id="SlRXcpWh59kvIgN_GhmR-10" value="" style="edgeStyle=orthogonalEdgeStyle;rounded=0;orthogonalLoop=1;jettySize=auto;html=1;" edge="1" parent="85didcNxIVd2ZYdAyxNC-39" source="85didcNxIVd2ZYdAyxNC-23" target="SlRXcpWh59kvIgN_GhmR-9">
          <mxGeometry relative="1" as="geometry" />
        </mxCell>
        <mxCell id="SlRXcpWh59kvIgN_GhmR-12" value="" style="edgeStyle=orthogonalEdgeStyle;rounded=0;orthogonalLoop=1;jettySize=auto;html=1;entryX=0;entryY=0.5;entryDx=0;entryDy=0;" edge="1" parent="85didcNxIVd2ZYdAyxNC-39" source="SlRXcpWh59kvIgN_GhmR-6" target="85didcNxIVd2ZYdAyxNC-25">
          <mxGeometry relative="1" as="geometry">
            <mxPoint x="540" y="140" as="targetPoint" />
          </mxGeometry>
        </mxCell>
        <mxCell id="85didcNxIVd2ZYdAyxNC-21" value="Daily time series&lt;br&gt;&lt;br&gt;dtype: torch.float64" style="whiteSpace=wrap;html=1;rounded=0;" parent="85didcNxIVd2ZYdAyxNC-39" vertex="1">
          <mxGeometry x="542" y="200" width="102" height="62" as="geometry" />
        </mxCell>
        <mxCell id="85didcNxIVd2ZYdAyxNC-22" value="" style="edgeStyle=orthogonalEdgeStyle;rounded=0;orthogonalLoop=1;jettySize=auto;html=1;" parent="85didcNxIVd2ZYdAyxNC-39" source="85didcNxIVd2ZYdAyxNC-17" target="85didcNxIVd2ZYdAyxNC-21" edge="1">
          <mxGeometry relative="1" as="geometry" />
        </mxCell>
        <mxCell id="85didcNxIVd2ZYdAyxNC-43" value="" style="edgeStyle=orthogonalEdgeStyle;rounded=0;orthogonalLoop=1;jettySize=auto;html=1;" parent="1" source="85didcNxIVd2ZYdAyxNC-40" target="85didcNxIVd2ZYdAyxNC-42" edge="1">
          <mxGeometry relative="1" as="geometry" />
        </mxCell>
        <mxCell id="85didcNxIVd2ZYdAyxNC-40" value="Conv1d" style="ellipse;whiteSpace=wrap;html=1;rounded=0;" parent="1" vertex="1">
          <mxGeometry x="1440" y="260" width="120" height="60" as="geometry" />
        </mxCell>
        <mxCell id="85didcNxIVd2ZYdAyxNC-45" value="" style="edgeStyle=orthogonalEdgeStyle;rounded=0;orthogonalLoop=1;jettySize=auto;html=1;" parent="1" source="85didcNxIVd2ZYdAyxNC-42" edge="1">
          <mxGeometry relative="1" as="geometry">
            <mxPoint x="1420" y="570" as="targetPoint" />
          </mxGeometry>
        </mxCell>
        <mxCell id="85didcNxIVd2ZYdAyxNC-51" value="Model" style="swimlane;fillColor=#fff2cc;strokeColor=#d6b656;" parent="1" vertex="1">
          <mxGeometry x="770" y="100" width="820" height="560" as="geometry" />
        </mxCell>
        <mxCell id="85didcNxIVd2ZYdAyxNC-42" value="maxpool" style="ellipse;whiteSpace=wrap;html=1;rounded=0;" parent="85didcNxIVd2ZYdAyxNC-51" vertex="1">
          <mxGeometry x="590" y="262" width="120" height="60" as="geometry" />
        </mxCell>
        <mxCell id="85didcNxIVd2ZYdAyxNC-46" value="prediction" style="rounded=0;whiteSpace=wrap;html=1;" parent="85didcNxIVd2ZYdAyxNC-51" vertex="1">
          <mxGeometry x="590" y="470" width="120" height="60" as="geometry" />
        </mxCell>
      </root>
    </mxGraphModel>
  </diagram>
</mxfile>
